<svg width="361" height="171" viewBox="0 0 361 171" fill="none" xmlns="http://www.w3.org/2000/svg">
<path d="M134.733 4.33335C134.333 8.60001 134.2 8.66668 127 9.06668C123 9.33335 119.067 10.0667 118.4 10.7333C117.667 11.4667 93.5333 12 58.7333 12C-7.26668 12 -2.66668 11 5.46665 23.5333C18.4 43.5333 38.2667 53.0667 89.8 63.9333C144.467 75.5333 154.333 82.0667 159.733 110.267C163.533 129.933 153.333 143.067 128 151.2C126.067 151.8 125.667 153.533 125.667 161.267V170.667H152.067H178.467L180.267 163.8C187.867 134.2 244.267 129.533 258.333 157.4C260.2 161 261.667 165.4 261.667 167.267V170.667H285H308.333V161.467V152.267L302.667 148.933C278.867 135 268.4 117 270.067 93.0667C272.067 63.3333 296.933 44.6667 347.133 35.2L360.333 32.6667V16.3333V1.14441e-05H247.733H135.2L134.733 4.33335ZM59.4667 38C73.8667 42.8 90 45.9333 108.067 47.4C119.533 48.3333 123 50 123 54.7333C123 69 62.8 54.9333 35.6667 34.3333C20 22.4667 19.3333 20.2 33.4667 27.2667C40.3333 30.6667 52.0667 35.5333 59.4667 38Z" fill="black"/>
</svg>
