<svg width="247" height="156" viewBox="0 0 247 156" fill="none" xmlns="http://www.w3.org/2000/svg">
<path d="M38.3333 2.46666C35.7333 4.06666 32.7333 8.19999 29.8667 14.2L25.4 23.5333L19.9333 23.4667C11.0667 23.2667 5.13332 35.5333 11.2667 41.3333L14.2667 44.0667L7.39999 57.8L0.599991 71.5333L22.4 82.4L44.2 93.2667L51.2667 80C55.1333 72.6667 58.6667 66.6667 59 66.6667C59.4 66.6667 98.8667 86.7333 146.733 111.333C194.667 135.867 234.667 156 235.667 156C240.467 156 247 148.133 247 142.267C247 138.533 239.467 134.267 172.333 100C134.6 80.7333 95.7333 60.8 86.0667 55.7333L68.5333 46.5333L73.8667 35.3333C81.4 19.7333 81.0667 18.9333 61.6 8.33333C44.6667 -0.866675 44 -1.00001 38.3333 2.46666Z" fill="black"/>
</svg>
